<?xml version="1.0" standalone="no"?><!DOCTYPE svg PUBLIC "-//W3C//DTD SVG 1.1//EN" "http://www.w3.org/Graphics/SVG/1.1/DTD/svg11.dtd"><svg t="1501678717306" class="icon" style="" viewBox="0 0 1024 1024" version="1.1" xmlns="http://www.w3.org/2000/svg" p-id="2748" xmlns:xlink="http://www.w3.org/1999/xlink" width="20" height="20"><defs><style type="text/css"></style></defs><path d="M859.05 722.033V255.225h-51.868v466.808H288.51v-51.869h-51.867V151.49h466.805V99.623H236.643V47.756h-51.867v51.867H81.04v51.868h103.736V773.9h622.407v103.735h51.868V773.9h51.87v-51.868H859.05zM340.378 618.297h-51.869v51.87h51.869v-51.87z m51.867-51.866h-51.867v51.867h51.867v-51.867z m51.867-51.869h-51.867v51.87h51.867v-51.87z m51.869-51.867h-51.87v51.867h51.87v-51.867z m51.868-51.868h-51.868v51.868h51.868v-51.868z m51.866-51.868h-51.867v51.868h51.867v-51.868z m51.865-51.867h-51.866v51.867h51.867v-51.867z m51.868-51.867H651.58v51.867h51.868v-51.867h-0.001z m51.867-51.867h-51.868v51.867h51.868v-51.867z m51.868-51.868h-51.869v51.868h51.87V151.49z m51.867-51.867h-51.868v51.868h51.868V99.623z" fill="" p-id="2749"></path></svg>