<?xml version="1.0" standalone="no"?><!DOCTYPE svg PUBLIC "-//W3C//DTD SVG 1.1//EN" "http://www.w3.org/Graphics/SVG/1.1/DTD/svg11.dtd"><svg t="1500870747034" class="icon" style="" viewBox="0 0 1024 1024" version="1.1" xmlns="http://www.w3.org/2000/svg" p-id="7235" xmlns:xlink="http://www.w3.org/1999/xlink" width="200" height="200"><defs><style type="text/css"></style></defs><path d="M754.718604 67.181579H670.64476V25.03747C670.64476 11.231988 659.455043 0 645.628426 0H378.370522c-13.827624 0-25.048541 11.231988-25.048541 25.03747v42.144109H269.248137C255.421519 67.181579 244.231803 78.371296 244.231803 92.198919v906.760592c0 13.826617 11.189717 25.038476 25.016334 25.038476h485.470467c13.827624 0 25.048541-11.211859 25.048541-25.038476V92.198919c0-13.827624-11.220917-25.017341-25.048541-25.01734m-259.744751 777.951028V580.626339l-101.984637 28.682833 101.984637-363.283348 22.304957 267.6786 95.593677-38.222978-117.898634 369.651161z" fill="" p-id="7236"></path></svg>