<?xml version="1.0" standalone="no"?><!DOCTYPE svg PUBLIC "-//W3C//DTD SVG 1.1//EN" "http://www.w3.org/Graphics/SVG/1.1/DTD/svg11.dtd"><svg t="1500822981759" class="icon" style="" viewBox="0 0 1024 1024" version="1.1" xmlns="http://www.w3.org/2000/svg" p-id="23370" xmlns:xlink="http://www.w3.org/1999/xlink" width="200" height="200"><defs><style type="text/css"></style></defs><path d="M802.223633 829.747019l-17.987725-161.961763a55.191252 55.191252 0 0 0-55.119012-53.818695h-28.859824V336.601623a20.949559 20.949559 0 1 0-41.971358 0v277.328818h-167.993792V336.601623a20.949559 20.949559 0 1 0-41.971358 0v277.328818H280.290653V336.601623a20.949559 20.949559 0 1 0-41.971358 0v277.328818H196.311817c-29.979541 0-54.468854 24.055873-55.119013 53.890935l-18.276684 174.892698a16.615168 16.615168 0 0 0-0.03612 3.539753l-0.07224 1.264198v15.748289c0 30.376861 24.706032 55.119012 55.119012 55.119012h572.211923c30.376861 0 55.119012-24.706032 55.119012-55.119012v-15.748289c0-6.212628-1.119718-12.172416-3.034074-17.771006z m-38.973404 33.555415c0 7.223986-5.887549 13.111534-13.111534 13.111534H177.890653a13.147654 13.147654 0 0 1-13.111535-13.111534v-15.748289c0-7.223986 5.887549-13.111534 13.111535-13.111535h572.211922c7.223986 0 13.111534 5.887549 13.111534 13.111535l0.03612 15.748289z" p-id="23371"></path><path d="M598.073792 218.706173a18.782363 18.782363 0 1 0 6.718307 36.914568 138.12261 138.12261 0 0 1 159.505608 108.648748 18.674004 18.674004 0 0 0 34.205573 7.440705 18.637884 18.637884 0 0 0 2.817355-13.617213l-0.1806-1.047478c-18.421164-93.225538-109.515626-155.315697-203.066243-138.33933z" p-id="23372"></path><path d="M900.86716 329.449877c-29.148783-145.852275-172.147584-244.604162-318.830617-220.15097l-6.393227 1.155837a18.674004 18.674004 0 0 0-7.404586 33.880494c4.117672 2.889594 9.102222 3.973192 14.050653 3.070194 129.815026-24.669912 256.01806 60.320282 281.807689 189.37679 0.975238 4.91231 3.828713 9.138342 8.018625 11.919577s9.174462 3.792593 14.086772 2.817354a19.179683 19.179683 0 0 0 14.664691-22.069276z" p-id="23373"></path></svg>