<?xml version="1.0" standalone="no"?><!DOCTYPE svg PUBLIC "-//W3C//DTD SVG 1.1//EN" "http://www.w3.org/Graphics/SVG/1.1/DTD/svg11.dtd"><svg t="1500890821902" class="icon" style="" viewBox="0 0 1024 1024" version="1.1" xmlns="http://www.w3.org/2000/svg" p-id="7419" xmlns:xlink="http://www.w3.org/1999/xlink" width="200" height="200"><defs><style type="text/css"></style></defs><path d="M793.7 881.4c-16.8-0.1-19.6-8.5-19.4-22.1 0.3-30.7-0.4-61.5 0-92.3 0.4-31.9-11.5-58.1-32.8-81.4-35.7-39.2-69.7-80-106.2-118.3-36.7-38.4-36.3-71.5-0.7-109 36.4-38.4 70.4-79.2 106.2-118.3 22.4-24.3 34.3-51.8 33.6-85.1-0.7-30.7 0.1-61.5-0.1-92.3-0.1-12.8 4.2-18.7 18.2-19.1 21.4-0.7 37.4-17.1 38.9-36.8 1.3-17.8-13-35.8-33.2-40.6-6.3-1.5-13-1.7-19.4-1.7C601 64.5 423 64.5 245.1 64.6c-7.7 0-15.7 0.6-23.2 2.6-19.1 5.2-32.1 23.2-30.3 40.5 2.1 19.6 17.3 35.8 37.5 35.9 16.8 0.1 19.6 8.4 19.4 22-0.3 30.7 0.4 61.5 0 92.3-0.4 31.8 11.5 58.1 32.8 81.4 38.7 42.6 76.9 85.7 114.8 129 27.2 31 27 57.4-0.6 88.9-37.9 43.3-76.1 86.4-114.8 129-20.6 22.8-32.5 48.6-32.1 79.7 0.3 30.1-0.5 60.2 0.1 90.3 0.3 16.2-2.7 25.7-22.4 25.4-17.7-0.3-32.6 15.9-34.1 34.6-1.5 17.8 6.2 32.3 23.2 39.3 8.8 3.6 19 4.7 28.7 4.8 89 0.3 177.9 0.2 266.9 0.2s177.9 0.1 266.8-0.1c8.3 0 17.1-0.8 25-3.1 17.8-5.3 30.2-23.6 28.5-39.9C829.3 898 813.8 881.5 793.7 881.4zM696.8 860.9c0.4 15.6-6.1 20.3-21 20.1-54.9-0.6-109.9-0.2-164.8-0.2-51.7 0-103.3 0.1-154.9 0-29.6 0-29.6-0.1-29.7-30.7-0.1-17 1.6-34.2-0.4-50.9-3.8-32.1 8.2-56.1 30-78.8 35.7-37.3 69.4-76.5 103.5-115.3 48.2-54.7 47.3-131.9-1.9-187.4-38.6-43.5-78.1-86.3-115.5-130.9-8.8-10.5-13.9-26.4-15.1-40.4-2.4-26.6-0.1-53.6-0.9-80.4-0.4-15.5 4.2-22.2 21.1-22.1 109.9 0.6 219.7 0.4 329.5 0.1 14.1-0.1 20.3 4.4 20 19.1-0.6 29.4 1 59-0.8 88.3-0.7 11.4-5.8 24.6-13.2 33.3-37.7 44.3-76.6 87.6-115.6 130.8-52.5 58.4-52.9 135.1-0.6 193.4 38.8 43.4 77.9 86.6 115.5 130.9 7.8 9.1 13 22.9 13.8 35C697.9 803.3 696.1 832.2 696.8 860.9zM639.5 256.5l-256 0 128 128L639.5 256.5zM383.5 768.5l0 64 256 0 0-64-128-128L383.5 768.5z" p-id="7420"></path></svg>