<?xml version="1.0" standalone="no"?><!DOCTYPE svg PUBLIC "-//W3C//DTD SVG 1.1//EN" "http://www.w3.org/Graphics/SVG/1.1/DTD/svg11.dtd"><svg t="1500824678475" class="icon" style="" viewBox="0 0 1024 1024" version="1.1" xmlns="http://www.w3.org/2000/svg" p-id="32658" xmlns:xlink="http://www.w3.org/1999/xlink" width="200" height="200"><defs><style type="text/css"></style></defs><path d="M507.904 938.24c-120.448 0-176.896 0.128-297.408-0.064-104.384-0.128-146.432-42.56-146.432-147.264C64 595.84 63.936 400.896 64 205.952c0.064-92.288 44.48-137.856 137.152-138.048 247.04-0.576 430.08-0.64 677.184 0 95.104 0.32 140.992 47.36 141.056 141.76 0.128 195.968 0.128 392 0 588.032 0 95.808-44.16 140.096-140.992 140.416-123.52 0.448-247.04 0.128-370.56 0.128z m375.296-51.52c62.08-0.064 84.224-22.72 84.288-85.248V204.544c0-62.592-22.272-85.312-84.16-85.376-248.96-0.128-433.984-0.128-683.008 0-62.016 0-84.224 22.784-84.288 85.248v596.992c0 62.528 22.272 85.184 84.224 85.312 123.456 0.192 182.912 0.064 306.432 0.064 125.44 0 251.008 0.128 376.512-0.064z" p-id="32659"></path><path d="M624 349.824c0.512-26.24-2.432-50.88 8.704-73.984 27.328-56.64 77.952-56.96 130.56-57.088 49.088-0.128 94.336 7.232 114.368 57.6 19.776 49.664 20.864 103.296-0.576 152.32-25.92 59.392-82.368 58.048-136.576 57.216-46.976-0.704-86.464-13.632-108.288-59.584-11.904-25.216-6.912-52.096-8.192-76.48z m51.84 1.024c-0.384 76.544 6.08 83.008 83.264 82.944 7.104 0 14.208 0.128 21.312-0.128 32.832-0.96 53.504-14.592 56.128-44.16 5.12-56.512 6.208-99.84-26.752-113.984a56.448 56.448 0 0 0-20.672-3.84 1088.64 1088.64 0 0 0-67.072 0c-29.184 1.216-44.16 16.32-46.08 45.696-0.768 11.072-0.192 22.336-0.192 33.472zM356.48 767.616l-110.464-0.064c-9.152 0-18.432 0.256-27.456-1.28-13.12-2.176-23.488-9.6-23.808-23.808-0.384-15.744 10.24-25.6 24.896-25.664 135.68-0.64 207.36-0.576 342.976 0 13.312 0 23.04 8.768 23.424 23.488 0.384 16.32-10.112 24.832-24.576 25.92-23.36 1.664-46.848 1.28-70.336 1.344-44.864 0.192-89.792 0-134.656 0z m-121.728-109.44c-19.2 0-40.256-1.152-39.552-26.432 0.576-23.04 21.312-24.512 38.912-24.576 125.248-0.32 186.56-0.32 311.808-0.064 18.88 0 39.872 1.728 39.232 27.264-0.64 24.064-20.928 23.808-38.592 23.808-63.168 0.128-126.336 0.064-189.44 0.064H234.816z" p-id="32660"></path></svg>