<?xml version="1.0" standalone="no"?><!DOCTYPE svg PUBLIC "-//W3C//DTD SVG 1.1//EN" "http://www.w3.org/Graphics/SVG/1.1/DTD/svg11.dtd"><svg t="1500824702092" class="icon" style="" viewBox="0 0 1024 1024" version="1.1" xmlns="http://www.w3.org/2000/svg" p-id="33334" xmlns:xlink="http://www.w3.org/1999/xlink" width="200" height="200"><defs><style type="text/css"></style></defs><path d="M454.862675 595.997066 543.892361 595.997066 570.531068 429.155177 480.800417 429.155177Z" p-id="33335"></path><path d="M511.995907 63.224973c-247.202125 0-447.599248 200.397123-447.599248 447.599248s200.397123 447.598224 447.599248 447.598224 447.598224-200.397123 447.598224-447.598224S759.198032 63.224973 511.995907 63.224973zM696.012967 429.155177l-60.988026 0L609.086176 595.997066l69.400626 0-9.113565 57.483202-69.400626 0-17.525142 109.358687-65.194838 0 17.525142-109.358687-89.028663 0-17.525142 109.358687-65.194838 0 17.525142-109.358687-60.988026 0 9.113565-57.483202 60.988026 0 26.638707-166.841889-70.101591 0 9.113565-57.483202 70.101591 0 17.525142-109.358687 64.493873 0-17.525142 109.358687 89.729627 0 17.525142-109.358687 64.493873 0-17.525142 109.358687 60.988026 0L696.012967 429.155177z" p-id="33336"></path></svg>