<?xml version="1.0" standalone="no"?><!DOCTYPE svg PUBLIC "-//W3C//DTD SVG 1.1//EN" "http://www.w3.org/Graphics/SVG/1.1/DTD/svg11.dtd"><svg t="1500945548173" class="icon" style="" viewBox="0 0 1024 1024" version="1.1" xmlns="http://www.w3.org/2000/svg" p-id="22413" xmlns:xlink="http://www.w3.org/1999/xlink" width="200" height="200"><defs><style type="text/css"></style></defs><path d="M896 0c96 18.688 128 125.312 128 125.312V896c-29.312 114.688-128 128-128 128H128c-104-16-128-130.688-128-130.688V130.688C26.688 42.688 128 0 128 0h768zM388.672 511.872H368.64L319.232 636.8v20.672l13.952 7.232h132.8l-61.568 188.544 5.568 13.504h14.464l145.728-153.792v-19.712L388.672 511.872zM228.928 182.464h-25.152l-21.12 22.464v18.496L784.576 832h31.744l15.68-14.72v-31.552L228.928 182.464z m219.2 44.416l-25.408 83.072L633.984 534.4h24.896l64.448-64.064v-25.216L614.4 444.672l0.832-6.464 114.752-192.256v-12.608l-6.464-6.464H448.128z" p-id="22414"></path></svg>