<?xml version="1.0" standalone="no"?><!DOCTYPE svg PUBLIC "-//W3C//DTD SVG 1.1//EN" "http://www.w3.org/Graphics/SVG/1.1/DTD/svg11.dtd"><svg t="1500865452147" class="icon" style="" viewBox="0 0 1024 1024" version="1.1" xmlns="http://www.w3.org/2000/svg" p-id="1218" xmlns:xlink="http://www.w3.org/1999/xlink" width="200" height="200"><defs><style type="text/css"></style></defs><path d="M859.479313 418.821086 790.17513 418.821086 790.17513 349.662242C790.17513 192.122197 659.267652 71.086694 511.037542 71.086694 358.953574 71.086694 231.899989 197.885201 231.899989 349.662242L231.899989 418.821086 162.595772 418.821086 162.595772 349.662242C162.595772 159.4624 322.379332 0 512.963823 0 701.620668 0 863.326379 151.777041 863.326379 349.662242L863.326379 418.821086 859.479313 418.821086ZM953.807087 418.821086 68.266667 418.821086 68.266667 908.727501C68.266667 972.128802 120.242756 1024 185.698543 1024L838.302822 1024C901.832363 1024 955.733333 972.128802 955.733333 908.727501L955.733333 418.821086 953.807087 418.821086ZM882.576623 487.985425 882.576623 906.810607C882.576623 931.783646 861.405594 952.917402 836.375177 952.917402L183.772297 952.917402C158.747375 952.917402 137.57085 931.783646 137.57085 906.810607L137.57085 487.985425 882.576623 487.985425 882.576623 487.985425ZM497.561975 605.178914 520.664747 605.178914C539.914991 605.178914 555.311343 620.551031 555.311343 639.761067L555.311343 803.064115C555.311343 822.275516 539.914991 837.646268 520.664747 837.646268L497.561975 837.646268C478.311731 837.646268 462.909884 822.275516 462.909884 803.064115L462.909884 639.761067C462.909884 620.551031 478.311731 605.178914 497.561975 605.178914L497.561975 605.178914Z" p-id="1219"></path></svg>