<?xml version="1.0" standalone="no"?><!DOCTYPE svg PUBLIC "-//W3C//DTD SVG 1.1//EN" "http://www.w3.org/Graphics/SVG/1.1/DTD/svg11.dtd"><svg t="1501209183378" class="icon" style="" viewBox="0 0 1024 1024" version="1.1" xmlns="http://www.w3.org/2000/svg" p-id="10680" xmlns:xlink="http://www.w3.org/1999/xlink" width="20" height="20"><defs><style type="text/css"></style></defs><path d="M856.885911 64.076364h-692.205244c-56.057737 0-101.509928 45.193295-101.509929 100.974739v691.163519c0 55.780421 45.452191 100.972693 101.509929 100.972693h692.206268c55.984059 0 101.473089-45.192272 101.473089-100.972693V165.051103c-0.001023-55.781444-45.48903-100.974739-101.474113-100.974739z m27.042913 792.139282c0 14.795984-12.173251 26.910906-27.042913 26.910906h-692.205244c-14.907525 0-27.081799-12.114922-27.081799-26.910906V165.051103c0-14.832823 12.174274-26.910906 27.081799-26.910906h692.206268c14.869662 0 27.042913 12.07706 27.042913 26.910906v691.164543h-0.001024zM569.884338 213.908858l-177.396269 41.202401-67.539232 313.262679 177.35943-24.771173-33.787524 263.719311L696.579879 403.492704l-219.603557 32.968879 92.908016-222.552725z" p-id="10681"></path></svg>