<?xml version="1.0" standalone="no"?><!DOCTYPE svg PUBLIC "-//W3C//DTD SVG 1.1//EN" "http://www.w3.org/Graphics/SVG/1.1/DTD/svg11.dtd"><svg t="1500876478830" class="icon" style="" viewBox="0 0 1024 1024" version="1.1" xmlns="http://www.w3.org/2000/svg" p-id="41213" xmlns:xlink="http://www.w3.org/1999/xlink" width="200" height="200"><defs><style type="text/css"></style></defs><path d="M548.004517 289.132096c53.670363 6.343475 103.691617 25.077142 147.304927 53.407374l47.820122-59.124586 55.444776 47.851844-46.275953 57.252958c1.74269 1.707898 3.451612 3.451612 5.128811 5.192256 63.955614 66.093301 103.526865 157.360957 103.526865 258.193457 0 100.833523-39.571251 192.068434-103.526865 258.193457-63.925938 66.062602-152.301731 106.945731-249.847371 106.945731-97.578386 0-185.922457-40.883129-249.879094-106.945731-63.956637-66.125023-103.495142-157.359934-103.495142-258.193457 0-100.8325 39.538505-192.101179 103.495142-258.193457 54.853305-56.660464 127.717823-94.817506 208.894657-104.514355l0-36.645618-56.199976 0 0-53.078893c-3.25309-1.707898-6.375198-3.483334-9.399067-5.355985-31.649837-19.357883-51.205219-47.425126-51.205219-79.535451 0-32.04381 19.554358-60.128449 51.205219-79.486332 27.870768-17.140379 65.927525-27.706015 107.537202-27.706015 41.574884 0 79.633688 10.56666 107.537202 27.706015 31.650861 19.357883 51.204196 47.441499 51.204196 79.486332 0 32.110325-19.553335 60.177568-51.204196 79.535451-3.450589 2.136663-7.000438 4.108574-10.746762 6.013971l0 52.420907L548.004517 252.55197 548.004517 289.132096 548.004517 289.132096zM410.395416 141.235698l0-4.798283 194.928574 0 0 6.04774c9.365298-8.544607 14.787798-18.142196 14.787798-27.903513 0-13.640672-10.680247-27.049053-27.999704-37.631062-20.968567-12.883425-50.51551-20.837584-83.578534-20.837584-33.063023 0-62.609966 7.954159-83.61128 20.837584-17.286712 10.583033-28.001751 23.991414-28.001751 37.631062C396.92052 123.882472 401.850809 133.018549 410.395416 141.235698L410.395416 141.235698zM327.146387 486.36004l42.166355 43.546795 21.066805-21.756513-42.166355-43.579541L327.146387 486.36004 327.146387 486.36004zM347.358731 838.322114l42.167379-43.513026-21.066805-21.824051-42.166355 43.579541L347.358731 838.322114 347.358731 838.322114zM688.014294 817.418015l-42.168402-43.579541-21.066805 21.822005 42.167379 43.581588L688.014294 817.418015 688.014294 817.418015zM748.454852 637.117602l-59.619866 0 0 30.761608 59.619866 0L748.454852 637.117602 748.454852 637.117602zM521.875416 900.765281 521.875416 839.175551l-29.807886 0 0 61.590753L521.875416 900.766304 521.875416 900.765281zM266.705829 666.696268l59.618842 0 0-30.830169-59.618842 0L266.705829 666.696268 266.705829 666.696268zM493.283218 403.012773l0 61.623499 29.810956 0 0-61.623499L493.283218 403.012773 493.283218 403.012773zM552.0476 637.576043c-2.102894-4.930289-4.863774-9.334599-8.084119-13.21293 39.966247-49.297776 75.263148-103.163591 106.782002-160.7788-7.854898-6.145977-15.677051-12.357446-23.530926-18.470677-43.61331 50.0233-81.047898 103.987353-112.698758 161.699776-9.991562-2.036379-20.639063-0.986467-30.629601 3.549849-26.096355 11.964496-37.862329 43.515073-26.326599 70.465888 11.535731 26.948769 42.069141 39.10974 68.164472 27.146267 3.219321-1.445932 6.27696-3.220345 9.035794-5.258771 38.487569 18.207687 79.765695 31.945573 124.760468 39.702234 3.780093-10.911514 7.526417-21.823028 11.30651-32.734542-36.151361-21.165042-74.40971-37.007869-114.372887-48.640814C556.714899 653.28584 555.334459 645.200698 552.0476 637.576043L552.0476 637.576043zM689.886945 463.517799c-46.669926-48.180326-111.118773-77.990259-182.306092-77.990259-71.221088 0-135.638213 29.809933-182.307116 77.990259-46.63718 48.247864-75.493391 114.834398-75.493391 188.387601s28.856211 140.139737 75.493391 188.32211c46.668902 48.245817 111.086028 78.023004 182.307116 78.023004 71.187319 0 135.636167-29.777187 182.306092-78.023004 46.63718-48.182372 75.493391-114.768907 75.493391-188.32211S736.524125 511.766686 689.886945 463.517799z" p-id="41214"></path></svg>