<?xml version="1.0" standalone="no"?><!DOCTYPE svg PUBLIC "-//W3C//DTD SVG 1.1//EN" "http://www.w3.org/Graphics/SVG/1.1/DTD/svg11.dtd"><svg t="1500821375638" class="icon" style="" viewBox="0 0 1024 1024" version="1.1" xmlns="http://www.w3.org/2000/svg" p-id="17564" xmlns:xlink="http://www.w3.org/1999/xlink" width="200" height="200"><defs><style type="text/css"></style></defs><path d="M525.312 61.44C268.288 61.44 60.416 270.336 60.416 527.36S268.288 993.28 525.312 993.28c256 0 464.896-208.896 464.896-465.92S781.312 61.44 525.312 61.44zM522.24 952.32c-231.424 0-419.84-190.464-419.84-424.96S290.816 102.4 522.24 102.4s419.84 190.464 419.84 424.96S753.664 952.32 522.24 952.32z" p-id="17565"></path><path d="M560.128 716.8h71.68v-20.48h-71.68v20.48z m-66.56-416.768h-91.136V327.68h91.136v-27.648z m54.272 509.952h96.256v-27.648h-96.256v27.648zM244.736 649.216h27.648v-97.28h-27.648v97.28z m514.048-236.544h-26.624v91.136h26.624v-91.136zM495.616 253.952H399.36v27.648h96.256v-27.648z m-19.456 148.48v-18.432h-57.344v18.432h57.344z m7.168-55.296h-71.68V368.64h71.68v-21.504zM804.864 409.6h-27.648v97.28h27.648V409.6zM373.76 571.392v57.344h18.432v-57.344h-18.432z m-36.864-7.168v72.704h20.48v-72.704h-20.48z m374.784-70.656v-72.704h-20.48v72.704h20.48z m-35.84-7.168v-57.344h-18.432v57.344H675.84zM567.296 661.504v18.432H624.64v-18.432h-57.344z m-16.384 101.376h91.136v-27.648h-91.136v27.648zM317.44 555.008h-26.624v91.136H317.44v-91.136z m205.824-78.848c-29.696 0-53.248 23.552-53.248 53.248 0 29.696 23.552 53.248 53.248 53.248 29.696 0 53.248-23.552 53.248-53.248 0-29.696-24.576-53.248-53.248-53.248zM655.36 516.096c-3.072-26.624-13.312-51.2-29.696-70.656l104.448-102.4s-43.008-100.352-222.208-100.352V399.36c-24.576 3.072-47.104 13.312-65.536 28.672L337.92 322.56s-100.352 43.008-100.352 223.232h156.672c3.072 24.576 12.288 47.104 26.624 65.536L314.368 715.776s43.008 100.352 222.208 100.352V661.504c26.624-2.048 50.176-12.288 69.632-27.648l102.4 105.472S808.96 696.32 808.96 516.096H655.36z m-132.096 93.184c-44.032 0-79.872-35.84-79.872-79.872s35.84-79.872 79.872-79.872 79.872 35.84 79.872 79.872-35.84 79.872-79.872 79.872z" p-id="17566"></path></svg>