<?xml version="1.0" standalone="no"?><!DOCTYPE svg PUBLIC "-//W3C//DTD SVG 1.1//EN" "http://www.w3.org/Graphics/SVG/1.1/DTD/svg11.dtd"><svg t="1500890969099" class="icon" style="" viewBox="0 0 1024 1024" version="1.1" xmlns="http://www.w3.org/2000/svg" p-id="9263" xmlns:xlink="http://www.w3.org/1999/xlink" width="200" height="200"><defs><style type="text/css"></style></defs><path d="M694.765557 159.443385c-30.129204-7.323802-52.766784 1.702782-55.689347-8.723685-5.987365-21.366633-14.677281-43.706431-26.780947-66.796312 0 0-279.415804-42.393529-353.09385-33.366945-2.777253 0.343831-20.509103-1.460258-35.144428-1.460258-16.648169 0-66.660212 13.497409-66.660212 30.150694L157.396773 920.927483l50.28629 40.624233 46.5195-40.624233L254.202563 669.932985c0 0 4.909823-6.80601 13.5629-11.362792 45.743834-24.050766 260.947174-100.782358 342.839299-89.406263l0.335644 58.934251c55.916521 72.052013 256.923534-4.328585 256.923534-4.328585l1.75804-498.925217C773.22142 156.327418 775.10328 178.950671 694.765557 159.443385zM264.283152 611.067296c-3.103688 7.451716-10.080589 4.085038-10.080589 4.085038L254.202563 85.323271c0-2.00568 2.838651-15.906272 10.100032 4.369517C300.695456 161.678286 327.055824 460.45095 264.283152 611.067296zM838.511425 308.792878l-64.923662 0 0 64.923662 64.923662 0 0 64.918545-64.923662 0 0 64.931848 64.923662 0 0 64.923662-64.923662 0 0 32.460296-64.924685 0L708.663078 568.490595l-64.924685 0 0-64.923662-32.460296 0 0 32.458249-32.460296 0 0-32.458249-64.924685 0 0 32.458249-64.924685 0 0-32.458249-64.920592 0 0 64.923662L319.122131 568.490595l0-64.923662 64.924685 0 0-64.931848L319.122131 438.635085l0-64.918545 64.924685 0 0-64.923662L319.122131 308.792878l0-64.918545 64.924685 0 0-64.923662L319.122131 178.950671 319.122131 114.019847l64.924685 0 0 64.931848 64.920592 0L448.967408 114.019847l64.924685 0 0 64.931848 64.924685 0 0 64.923662 32.460296 0 0-64.923662 32.460296 0 0 64.923662 64.924685 0 0-32.465412 64.924685 0 0 32.465412 64.923662 0L838.510402 308.792878zM513.892093 308.792878l64.924685 0 0-64.918545-64.924685 0L513.892093 308.792878zM708.663078 438.635085l-64.924685 0 0 64.931848 64.924685 0L708.663078 438.635085zM578.817802 438.635085l0 64.931848 32.460296 0 0-64.931848L578.817802 438.635085zM708.663078 438.635085l64.924685 0 0-64.918545-64.924685 0L708.663078 438.635085zM708.663078 243.874333l0 64.918545 64.924685 0 0-64.918545L708.663078 243.874333zM708.663078 568.490595l64.924685 0 0-64.923662-64.924685 0L708.663078 568.490595zM448.967408 243.874333l-64.920592 0 0 64.918545 64.920592 0L448.967408 243.874333zM513.892093 373.71654l0 64.918545 64.924685 0 0-64.918545L513.892093 373.71654zM611.277074 373.71654l0 64.918545 32.460296 0 0-64.918545L611.277074 373.71654zM513.892093 243.874333l0-64.923662-64.924685 0 0 64.923662L513.892093 243.874333zM643.73737 373.71654l64.924685 0 0-64.923662-64.924685 0L643.73737 373.71654zM643.73737 308.792878l0-64.918545-32.460296 0 0 64.918545L643.73737 308.792878zM611.277074 373.71654l0-64.923662-32.460296 0 0 64.923662L611.277074 373.71654zM448.967408 438.635085l0 64.931848 64.924685 0 0-64.931848L448.967408 438.635085zM448.967408 373.71654l-64.920592 0 0 64.918545 64.920592 0L448.967408 373.71654zM513.892093 308.792878l-64.924685 0 0 64.923662 64.924685 0L513.892093 308.792878z" p-id="9264"></path></svg>