<?xml version="1.0" standalone="no"?><!DOCTYPE svg PUBLIC "-//W3C//DTD SVG 1.1//EN" "http://www.w3.org/Graphics/SVG/1.1/DTD/svg11.dtd"><svg t="1500819237696" class="icon" style="" viewBox="0 0 1024 1024" version="1.1" xmlns="http://www.w3.org/2000/svg" p-id="7356" xmlns:xlink="http://www.w3.org/1999/xlink" width="200" height="200"><defs><style type="text/css"></style></defs><path d="M512 58.176C261.376 58.176 58.176 261.376 58.176 512c0 250.624 203.2 453.824 453.824 453.824 250.624 0 453.824-203.2 453.824-453.824C965.824 261.376 762.624 58.176 512 58.176zM774.016 774.016C704.064 844.032 611.008 882.56 512 882.56c-99.008 0-192.064-38.528-262.016-108.544C179.968 704.064 141.44 611.008 141.44 512s38.528-192.064 108.544-262.016C319.936 179.968 412.992 141.44 512 141.44c99.008 0 192.064 38.528 262.016 108.544S882.56 412.992 882.56 512C882.56 611.008 844.032 704.064 774.016 774.016zM368.768 281.216 768.512 512l-399.744 230.784L368.768 281.216z" p-id="7357"></path></svg>