<?xml version="1.0" standalone="no"?><!DOCTYPE svg PUBLIC "-//W3C//DTD SVG 1.1//EN" "http://www.w3.org/Graphics/SVG/1.1/DTD/svg11.dtd"><svg t="1500824643215" class="icon" style="" viewBox="0 0 1024 1024" version="1.1" xmlns="http://www.w3.org/2000/svg" p-id="31982" xmlns:xlink="http://www.w3.org/1999/xlink" width="200" height="200"><defs><style type="text/css"></style></defs><path d="M828.101331 196.368366C743.66322 111.970164 631.450533 65.469084 512.027629 65.469084c-119.381971 0-231.612055 46.502104-316.01128 130.915655C111.588471 280.81978 65.097624 393.109216 65.097624 512.535189 65.075111 631.982652 111.528096 744.233202 195.951881 828.727595c84.382852 84.36341 196.624193 130.869606 315.994907 130.869606 119.422903 0 231.704153-46.536896 316.154543-130.958634C1002.328421 654.348032 1002.357074 370.733603 828.101331 196.368366L828.101331 196.368366 828.101331 196.368366 828.101331 196.368366zM786.91121 787.435143c-73.442686 73.451896-171.090657 113.937982-274.963399 113.937982-103.800088 0-201.422476-40.473807-274.822183-113.847931-73.391521-73.430406-113.805976-171.092703-113.783463-274.988981 0-103.886045 40.429805-201.555505 113.843838-274.960329 73.414033-73.418127 171.008792-113.840768 274.842649-113.840768 103.84409 0 201.453175 40.421618 274.882558 113.843838C938.442392 389.186883 938.442392 635.878378 786.91121 787.435143L786.91121 787.435143 786.91121 787.435143 786.91121 787.435143zM705.162348 622.094444 550.665625 532.727067 550.665625 289.002137c0-20.568455-16.682961-37.255509-37.251416-37.255509-20.553105 0-37.236066 16.682961-37.236066 37.255509l0 260.791631c0 13.82282 17.173125 25.411763 28.341488 31.819706 3.093455 4.646833 11.58178 8.868995 16.764825 11.848862l153.644309 93.145423c17.794271 10.275018 37.093826 4.164856 47.367821-13.639648C732.575698 655.146211 723.005738 632.382764 705.162348 622.094444L705.162348 622.094444 705.162348 622.094444 705.162348 622.094444zM705.162348 622.094444" p-id="31983"></path></svg>