<?xml version="1.0" standalone="no"?><!DOCTYPE svg PUBLIC "-//W3C//DTD SVG 1.1//EN" "http://www.w3.org/Graphics/SVG/1.1/DTD/svg11.dtd"><svg t="1500876842155" class="icon" style="" viewBox="0 0 1024 1024" version="1.1" xmlns="http://www.w3.org/2000/svg" p-id="41927" xmlns:xlink="http://www.w3.org/1999/xlink" width="200" height="200"><defs><style type="text/css"></style></defs><path d="M1023.148-150.803h-1022.282c-82.786 0-149.908 67.122-149.908 149.908v1025.807c0 82.786 67.122 149.908 149.908 149.908h1022.282c82.786 0 149.908-67.122 149.908-149.908v-1025.809c-0.016-82.786-67.122-149.908-149.908-149.908zM1063.118 1024.895c0 22.039-17.93 39.969-39.969 39.969h-1022.282c-22.039 0-39.969-17.93-39.969-39.969v-1025.809c0-22.039 17.93-39.969 39.969-39.969h1022.282c22.039 0 39.969 17.93 39.969 39.969v1025.809zM599.331 71.598l-261.983 61.167-99.792 464.885 261.983-36.7-49.904 391.486 336.839-599.436-324.38 48.933 137.236-330.335z" p-id="41928"></path></svg>