<?xml version="1.0" standalone="no"?><!DOCTYPE svg PUBLIC "-//W3C//DTD SVG 1.1//EN" "http://www.w3.org/Graphics/SVG/1.1/DTD/svg11.dtd"><svg t="1500890320049" class="icon" style="" viewBox="0 0 1024 1024" version="1.1" xmlns="http://www.w3.org/2000/svg" p-id="6380" xmlns:xlink="http://www.w3.org/1999/xlink" width="200" height="200"><defs><style type="text/css"></style></defs><path d="M754.269277 636.43915l54.106292 0 0-79.320557c0-155.202804-126.268822-281.461393-281.461393-281.461393l-85.694731 0 0-61.410652 63.134923 0c23.912619 0 43.301202-19.388583 43.301202-43.302225 0-23.912619-19.388583-43.301202-43.301202-43.301202L316.705594 127.643122c-23.913643 0-43.301202 19.388583-43.301202 43.301202 0 23.913643 19.388583 43.302225 43.301202 43.302225l63.155389 0 0 61.410652L184.09432 275.6572l0 129.905652 195.767686 0 0 79.319533 61.358463 0 0-79.319533 85.694731 0c83.559091 0 151.555741 67.986417 151.555741 151.555741l0 79.320557 47.318702 0c-10.359952 19.86442-46.960545 91.87857-56.093553 132.98171-8.075933 36.387745-0.210801 75.058486 20.509103 100.895945 15.244192 19.007913 35.986609 29.474288 58.398038 29.474288 22.115694 0 45.26902-10.296507 67.005067-29.770024 14.672164-13.150508 21.227464-33.386388 19.493983-60.131519C831.082734 748.551554 784.229636 667.021679 754.269277 636.43915zM801.143864 853.909114c-17.674545 15.858176-35.858696 24.230867-52.541657 24.230867-20.128433 0-33.6811-11.608386-41.505299-21.355377-16.723893-20.868283-22.960944-52.541657-16.259312-82.669838 7.589862-34.211173 37.234019-94.54326 50.384527-120.338762 26.217105 28.045753 68.75799 103.824647 72.26793 157.528779C814.782489 831.074036 810.639123 845.409532 801.143864 853.909114z" p-id="6381"></path></svg>