<?xml version="1.0" standalone="no"?><!DOCTYPE svg PUBLIC "-//W3C//DTD SVG 1.1//EN" "http://www.w3.org/Graphics/SVG/1.1/DTD/svg11.dtd"><svg t="1500897081443" class="icon" style="" viewBox="0 0 1024 1024" version="1.1" xmlns="http://www.w3.org/2000/svg" p-id="21222" xmlns:xlink="http://www.w3.org/1999/xlink" width="200" height="200"><defs><style type="text/css"></style></defs><path d="M511.999488 63.792908c-247.553029 0-448.22648 200.686718-448.22648 448.229604 0 247.520373 200.673451 448.186625 448.22648 448.186625 247.553029 0 448.22648-200.666252 448.22648-448.208115C960.225968 264.479627 759.552517 63.792908 511.999488 63.792908zM511.999488 857.698416c-190.911733 0-345.690067-154.771993-345.690067-345.698416 0-190.903911 154.778334-345.654414 345.690067-345.654414 190.912757 0 345.691091 154.750503 345.691091 345.654414C857.690579 702.926424 702.912245 857.698416 511.999488 857.698416z" p-id="21223"></path><path d="M719.982715 459.279265 303.994771 459.279265c-2.99841 0-5.99682 1.137916-8.294237 3.436262-2.275926 2.275833-3.413889 5.27412-3.413889 8.272407l0 82.047668c0 2.998287 1.137963 5.996574 3.413889 8.272407 2.29844 2.298346 5.29685 3.436262 8.294237 3.436262l415.988967 0c3.0199 0 6.01831-1.137916 8.31675-3.436262 2.275926-2.275833 3.413889-5.27412 3.413889-8.272407l0 0 0-82.047668c0-2.976798-1.137963-5.996574-3.413889-8.272407C726.001025 460.417181 723.002615 459.279265 719.982715 459.279265z" p-id="21224"></path></svg>